<svg xmlns="http://www.w3.org/2000/svg" xmlns:xlink="http://www.w3.org/1999/xlink" width="0" height="0" style="display:none;"><symbol viewBox="0 0 24 24" id="bold"><path d="M8 11H12.5C13.8807 11 15 9.88071 15 8.5C15 7.11929 13.8807 6 12.5 6H8V11ZM18 15.5C18 17.9853 15.9853 20 13.5 20H6V4H12.5C14.9853 4 17 6.01472 17 8.5C17 9.70431 16.5269 10.7981 15.7564 11.6058C17.0979 12.3847 18 13.837 18 15.5ZM8 13V18H13.5C14.8807 18 16 16.8807 16 15.5C16 14.1193 14.8807 13 13.5 13H8Z"></path></symbol><symbol viewBox="0 0 24 24" id="italic"><path d="M15 20H7V18H9.92661L12.0425 6H9V4H17V6H14.0734L11.9575 18H15V20Z"></path></symbol><symbol viewBox="0 0 24 24" id="text"><path d="M13 6V21H11V6H5V4H19V6H13Z"></path></symbol><symbol viewBox="0 0 24 24" id="heading"><path d="M17 11V4H19V21H17V13H7V21H5V4H7V11H17Z"></path></symbol><symbol viewBox="0 0 24 24" id="font-family"><path d="M5.55397 22H3.3999L10.9999 3H12.9999L20.5999 22H18.4458L16.0458 16H7.95397L5.55397 22ZM8.75397 14H15.2458L11.9999 5.88517L8.75397 14Z"></path></symbol><symbol viewBox="0 0 24 24" id="font-sans-serif"><path d="M5 4H19V8H17.5C17 6 17 5 15 5H10V12H13C14 12 15 11.5 15 10H16V15H15C15 13.5 14 13 13 13H10V17.5C10 20 13.5 20 13.5 20V21H5V20C7 19.5 7 18.5 7 17.5V7.5C7 6.5 7 5.5 5 5V4Z"></path></symbol><symbol viewBox="0 0 24 24" id="font-sans"><path d="M7 4H19V6H10V12H18V14H10V21H7V4Z"></path></symbol><symbol viewBox="0 0 24 24" id="font-mono"><path d="M6 4H19V6H8V12H18V14H8V21H6V4Z"></path></symbol><symbol viewBox="0 0 24 24" id="font-color"><path d="M15.2459 14H8.75407L7.15407 18H5L11 3H13L19 18H16.8459L15.2459 14ZM14.4459 12L12 5.88516L9.55407 12H14.4459ZM3 20H21V22H3V20Z"></path></symbol><symbol viewBox="0 0 24 24" id="font-size"><path d="M11.246 15H4.75416L2.75416 20H0.600098L7.0001 4H9.0001L15.4001 20H13.246L11.246 15ZM10.446 13L8.0001 6.88516L5.55416 13H10.446ZM21.0001 12.5351V12H23.0001V20H21.0001V19.4649C20.4118 19.8052 19.7287 20 19.0001 20C16.791 20 15.0001 18.2091 15.0001 16C15.0001 13.7909 16.791 12 19.0001 12C19.7287 12 20.4118 12.1948 21.0001 12.5351ZM19.0001 18C20.1047 18 21.0001 17.1046 21.0001 16C21.0001 14.8954 20.1047 14 19.0001 14C17.8955 14 17.0001 14.8954 17.0001 16C17.0001 17.1046 17.8955 18 19.0001 18Z"></path></symbol><symbol viewBox="0 0 24 24" id="underline"><path d="M8 3V12C8 14.2091 9.79086 16 12 16C14.2091 16 16 14.2091 16 12V3H18V12C18 15.3137 15.3137 18 12 18C8.68629 18 6 15.3137 6 12V3H8ZM4 20H20V22H4V20Z"></path></symbol><symbol viewBox="0 0 24 24" id="overline"><path d="M15.2459 18H8.75407L7.15407 22H5L11 7H13L19 22H16.8459L15.2459 18ZM14.4459 16L12 9.88516L9.55407 16H14.4459ZM4 3H20V5H4V3Z"></path></symbol><symbol viewBox="0 0 24 24" id="strikethrough"><path d="M17.1538 14C17.3846 14.5161 17.5 15.0893 17.5 15.7196C17.5 17.0625 16.9762 18.1116 15.9286 18.867C14.8809 19.6223 13.4335 20 11.5862 20C9.94674 20 8.32335 19.6185 6.71592 18.8555V16.6009C8.23538 17.4783 9.7908 17.917 11.3822 17.917C13.9333 17.917 15.2128 17.1846 15.2208 15.7196C15.2208 15.0939 15.0049 14.5598 14.5731 14.1173C14.5339 14.0772 14.4939 14.0381 14.4531 14H3V12H21V14H17.1538ZM13.076 11H7.62908C7.4566 10.8433 7.29616 10.6692 7.14776 10.4778C6.71592 9.92084 6.5 9.24559 6.5 8.45207C6.5 7.21602 6.96583 6.165 7.89749 5.299C8.82916 4.43299 10.2706 4 12.2219 4C13.6934 4 15.1009 4.32808 16.4444 4.98426V7.13591C15.2448 6.44921 13.9293 6.10587 12.4978 6.10587C10.0187 6.10587 8.77917 6.88793 8.77917 8.45207C8.77917 8.87172 8.99709 9.23796 9.43293 9.55079C9.86878 9.86362 10.4066 10.1135 11.0463 10.3004C11.6665 10.4816 12.3431 10.7148 13.076 11H13.076Z"></path></symbol><symbol viewBox="0 0 24 24" id="list-ordered"><path d="M8 4H21V6H8V4ZM5 3V6H6V7H3V6H4V4H3V3H5ZM3 14V11.5H5V11H3V10H6V12.5H4V13H6V14H3ZM5 19.5H3V18.5H5V18H3V17H6V21H3V20H5V19.5ZM8 11H21V13H8V11ZM8 18H21V20H8V18Z"></path></symbol><symbol viewBox="0 0 24 24" id="list-unordered"><path d="M8 4H21V6H8V4ZM4.5 6.5C3.67157 6.5 3 5.82843 3 5C3 4.17157 3.67157 3.5 4.5 3.5C5.32843 3.5 6 4.17157 6 5C6 5.82843 5.32843 6.5 4.5 6.5ZM4.5 13.5C3.67157 13.5 3 12.8284 3 12C3 11.1716 3.67157 10.5 4.5 10.5C5.32843 10.5 6 11.1716 6 12C6 12.8284 5.32843 13.5 4.5 13.5ZM4.5 20.4C3.67157 20.4 3 19.7284 3 18.9C3 18.0716 3.67157 17.4 4.5 17.4C5.32843 17.4 6 18.0716 6 18.9C6 19.7284 5.32843 20.4 4.5 20.4ZM8 11H21V13H8V11ZM8 18H21V20H8V18Z"></path></symbol><symbol viewBox="0 0 24 24" id="code-view"><path d="M16.95 8.46448L18.3642 7.05026L23.3139 12L18.3642 16.9498L16.95 15.5355L20.4855 12L16.95 8.46448ZM7.05048 8.46448L3.51495 12L7.05048 15.5355L5.63627 16.9498L0.686523 12L5.63627 7.05026L7.05048 8.46448Z"></path></symbol><symbol viewBox="0 0 24 24" id="paragraph"><path d="M12 6V21H10V16C6.68629 16 4 13.3137 4 10C4 6.68629 6.68629 4 10 4H20V6H17V21H15V6H12ZM10 6C7.79086 6 6 7.79086 6 10C6 12.2091 7.79086 14 10 14V6Z"></path></symbol><symbol viewBox="0 0 24 24" id="quote-text"><path d="M21 4H3V6H21V4ZM21 11H8V13H21V11ZM21 18H8V20H21V18ZM5 11H3V20H5V11Z"></path></symbol><symbol viewBox="0 0 24 24" id="h-1"><path d="M13 20H11V13H4V20H2V4H4V11H11V4H13V20ZM21.0005 8V20H19.0005L19 10.204L17 10.74V8.67L19.5005 8H21.0005Z"></path></symbol><symbol viewBox="0 0 24 24" id="h-2"><path d="M4 4V11H11V4H13V20H11V13H4V20H2V4H4ZM18.5 8C20.5711 8 22.25 9.67893 22.25 11.75C22.25 12.6074 21.9623 13.3976 21.4781 14.0292L21.3302 14.2102L18.0343 18H22V20H15L14.9993 18.444L19.8207 12.8981C20.0881 12.5908 20.25 12.1893 20.25 11.75C20.25 10.7835 19.4665 10 18.5 10C17.5818 10 16.8288 10.7071 16.7558 11.6065L16.75 11.75H14.75C14.75 9.67893 16.4289 8 18.5 8Z"></path></symbol><symbol viewBox="0 0 24 24" id="h-3"><path d="M22 8L21.9984 10L19.4934 12.883C21.0823 13.3184 22.25 14.7728 22.25 16.5C22.25 18.5711 20.5711 20.25 18.5 20.25C16.674 20.25 15.1528 18.9449 14.8184 17.2166L16.7821 16.8352C16.9384 17.6413 17.6481 18.25 18.5 18.25C19.4665 18.25 20.25 17.4665 20.25 16.5C20.25 15.5335 19.4665 14.75 18.5 14.75C18.214 14.75 17.944 14.8186 17.7056 14.9403L16.3992 13.3932L19.3484 10H15V8H22ZM4 4V11H11V4H13V20H11V13H4V20H2V4H4Z"></path></symbol><symbol viewBox="0 0 24 24" id="h-4"><path d="M13 20H11V13H4V20H2V4H4V11H11V4H13V20ZM22 8V16H23.5V18H22V20H20V18H14.5V16.66L19.5 8H22ZM20 11.133L17.19 16H20V11.133Z"></path></symbol><symbol viewBox="0 0 24 24" id="h-5"><path d="M22 8V10H17.6769L17.2126 12.6358C17.5435 12.5472 17.8912 12.5 18.25 12.5C20.4591 12.5 22.25 14.2909 22.25 16.5C22.25 18.7091 20.4591 20.5 18.25 20.5C16.4233 20.5 14.8827 19.2756 14.4039 17.6027L16.3271 17.0519C16.5667 17.8881 17.3369 18.5 18.25 18.5C19.3546 18.5 20.25 17.6046 20.25 16.5C20.25 15.3954 19.3546 14.5 18.25 14.5C17.6194 14.5 17.057 14.7918 16.6904 15.2478L14.8803 14.3439L16 8H22ZM4 4V11H11V4H13V20H11V13H4V20H2V4H4Z"></path></symbol><symbol viewBox="0 0 24 24" id="h-6"><path d="M21.097 8L18.499 12.5C20.7091 12.5 22.5 14.2909 22.5 16.5C22.5 18.7091 20.7091 20.5 18.5 20.5C16.2909 20.5 14.5 18.7091 14.5 16.5C14.5 15.7636 14.699 15.0737 15.0461 14.4811L18.788 8H21.097ZM4 4V11H11V4H13V20H11V13H4V20H2V4H4ZM18.5 14.5C17.3954 14.5 16.5 15.3954 16.5 16.5C16.5 17.6046 17.3954 18.5 18.5 18.5C19.6046 18.5 20.5 17.6046 20.5 16.5C20.5 15.3954 19.6046 14.5 18.5 14.5Z"></path></symbol><symbol viewBox="0 0 24 24" id="slash-commands"><path d="M3 3H5V7H3V3ZM9.78839 21H7.66003L14.2115 3H16.3398L9.78839 21ZM21 3H19V7H21V3Z"></path></symbol><symbol viewBox="0 0 24 24" id="formula"><path d="M10 2C7.79086 2 6 3.79086 6 6V9H3V11H6V18C6 19.1046 5.10457 20 4 20H3V22H4C6.20914 22 8 20.2091 8 18V11H11V9H8V6C8 4.89543 8.89543 4 10 4H11V2H10ZM15.2022 16.9971L11.8907 21H14.4864L16.5 18.5659L18.5137 21H21.1093L17.7979 16.9971L21.1046 13H18.5089L16.5 15.4283L14.4912 13H11.8955L15.2022 16.9971Z"></path></symbol><symbol viewBox="0 0 24 24" id="square-root"><path d="M15.382 4H22V6H16.618L9 21.2361L5.38197 14H2V12H6.61803L9 16.7639L15.382 4Z"></path></symbol><symbol viewBox="0 0 24 24" id="sketching"><path d="M10.0357 7.69802C8.38492 9.55932 6.5134 12.2442 4.89465 15.4817C4.64766 15.9757 4.04698 16.1759 3.55301 15.9289C3.05903 15.6819 2.8588 15.0812 3.10579 14.5873C4.79739 11.2041 6.76494 8.37171 8.53943 6.37095C9.4251 5.37234 10.2797 4.56162 11.0449 3.99131C11.4272 3.7063 11.8049 3.46806 12.1677 3.29756C12.5193 3.13234 12.921 3 13.3336 3C13.5496 3 13.7872 3.0535 14.007 3.19476C14.2233 3.33371 14.3629 3.51925 14.4495 3.69083C14.6066 4.00215 14.624 4.33473 14.6201 4.55938C14.6118 5.03651 14.4847 5.6328 14.3216 6.23975C13.9874 7.48318 13.3994 9.13104 12.8149 10.7577L12.7329 10.9858C12.1671 12.5598 11.6101 14.1093 11.248 15.3466C11.1505 15.68 11.0706 15.9792 11.0094 16.2414C11.7035 15.6835 12.5581 14.8454 13.466 13.9534L13.4956 13.9243C14.3772 13.0581 15.3098 12.1418 16.0967 11.5127C16.4872 11.2006 16.9082 10.904 17.3138 10.7322C17.6544 10.5878 18.4343 10.3532 19.0407 10.9596C19.4251 11.344 19.5318 11.8438 19.5594 12.2164C19.5883 12.6064 19.5429 13.0267 19.4725 13.4261C19.3315 14.2258 19.0483 15.159 18.7894 16.0009L18.7478 16.136C18.5165 16.8874 18.3102 17.5577 18.1926 18.0965C18.4529 17.8352 18.7734 17.4216 19.1475 16.811C19.436 16.34 20.0517 16.1921 20.5226 16.4806C20.9935 16.7691 21.1414 17.3848 20.8529 17.8557C20.3099 18.7422 19.748 19.4622 19.1519 19.9092C18.5283 20.377 17.7121 20.6407 16.8863 20.2278C16.2779 19.9235 16.1398 19.3173 16.1091 18.9819C16.0759 18.6192 16.1284 18.2233 16.1979 17.8667C16.3288 17.1944 16.5829 16.3698 16.823 15.5907L16.8777 15.4129C17.1447 14.5451 17.3873 13.734 17.5028 13.0789C17.5117 13.0284 17.5196 12.9802 17.5266 12.9341C17.4697 12.977 17.4094 13.0239 17.3455 13.0749C16.6477 13.6328 15.785 14.4788 14.8677 15.38L14.8381 15.4091C13.9566 16.2752 13.024 17.1915 12.2371 17.8206C11.8466 18.1328 11.4255 18.4293 11.02 18.6012C10.6794 18.7455 9.89947 18.9801 9.29311 18.3738C8.9843 18.065 8.9052 17.6753 8.87972 17.4382C8.8515 17.1755 8.86901 16.8971 8.90269 16.6351C8.9706 16.1069 9.12934 15.4656 9.32855 14.7849C9.70829 13.4872 10.2842 11.8852 10.8411 10.3362L10.9327 10.0814C11.5263 8.42931 12.082 6.8674 12.3901 5.72074C12.4172 5.61968 12.4418 5.52435 12.4638 5.43468C12.3924 5.48361 12.3178 5.53695 12.2401 5.59489C11.6173 6.05907 10.8627 6.76559 10.0357 7.69802Z"></path></symbol><symbol viewBox="0 0 24 24" id="draggable"><path d="M8.5 7C9.32843 7 10 6.32843 10 5.5C10 4.67157 9.32843 4 8.5 4C7.67157 4 7 4.67157 7 5.5C7 6.32843 7.67157 7 8.5 7ZM8.5 13.5C9.32843 13.5 10 12.8284 10 12C10 11.1716 9.32843 10.5 8.5 10.5C7.67157 10.5 7 11.1716 7 12C7 12.8284 7.67157 13.5 8.5 13.5ZM10 18.5C10 19.3284 9.32843 20 8.5 20C7.67157 20 7 19.3284 7 18.5C7 17.6716 7.67157 17 8.5 17C9.32843 17 10 17.6716 10 18.5ZM15.5 7C16.3284 7 17 6.32843 17 5.5C17 4.67157 16.3284 4 15.5 4C14.6716 4 14 4.67157 14 5.5C14 6.32843 14.6716 7 15.5 7ZM17 12C17 12.8284 16.3284 13.5 15.5 13.5C14.6716 13.5 14 12.8284 14 12C14 11.1716 14.6716 10.5 15.5 10.5C16.3284 10.5 17 11.1716 17 12ZM15.5 20C16.3284 20 17 19.3284 17 18.5C17 17.6716 16.3284 17 15.5 17C14.6716 17 14 17.6716 14 18.5C14 19.3284 14.6716 20 15.5 20Z"></path></symbol><symbol viewBox="0 0 24 24" id="table-view"><path d="M3 3C2.44772 3 2 3.44772 2 4V20C2 20.5523 2.44772 21 3 21H21C21.5523 21 22 20.5523 22 20V4C22 3.44772 21.5523 3 21 3H3ZM8 5V8H4V5H8ZM4 14V10H8V14H4ZM4 16H8V19H4V16ZM10 16H20V19H10V16ZM20 14H10V10H20V14ZM20 5V8H10V5H20Z"></path></symbol><symbol viewBox="0 0 24 24" id="list-view"><path d="M2 4C2 3.44772 2.44772 3 3 3H21C21.5523 3 22 3.44772 22 4V20C22 20.5523 21.5523 21 21 21H3C2.44772 21 2 20.5523 2 20V4ZM4 5V19H20V5H4ZM6 7H8V9H6V7ZM8 11H6V13H8V11ZM6 15H8V17H6V15ZM18 7H10V9H18V7ZM10 15H18V17H10V15ZM18 11H10V13H18V11Z"></path></symbol><symbol viewBox="0 0 24 24" id="code-block"><path d="M3.41436 5.99995L5.70726 3.70706L4.29304 2.29285L0.585938 5.99995L4.29304 9.70706L5.70726 8.29285L3.41436 5.99995ZM9.58594 5.99995L7.29304 3.70706L8.70726 2.29285L12.4144 5.99995L8.70726 9.70706L7.29304 8.29285L9.58594 5.99995ZM14.0002 2.99995H21.0002C21.5524 2.99995 22.0002 3.44767 22.0002 3.99995V20C22.0002 20.5522 21.5524 21 21.0002 21H3.00015C2.44787 21 2.00015 20.5522 2.00015 20V12H4.00015V19H20.0002V4.99995H14.0002V2.99995Z"></path></symbol><symbol viewBox="0 0 24 24" id="list-check"><path d="M8 4H21V6H8V4ZM3 3.5H6V6.5H3V3.5ZM3 10.5H6V13.5H3V10.5ZM3 17.5H6V20.5H3V17.5ZM8 11H21V13H8V11ZM8 18H21V20H8V18Z"></path></symbol><symbol viewBox="0 0 24 24" id="separator"><path d="M2 11H4V13H2V11ZM6 11H18V13H6V11ZM20 11H22V13H20V11Z"></path></symbol><symbol viewBox="0 0 24 24" id="text-wrap"><path d="M15 18H16.5C17.8807 18 19 16.8807 19 15.5C19 14.1193 17.8807 13 16.5 13H3V11H16.5C18.9853 11 21 13.0147 21 15.5C21 17.9853 18.9853 20 16.5 20H15V22L11 19L15 16V18ZM3 4H21V6H3V4ZM9 18V20H3V18H9Z"></path></symbol><symbol viewBox="0 0 24 24" id="arrow-right-s-line"><path d="M13.1717 12.0007L8.22192 7.05093L9.63614 5.63672L16.0001 12.0007L9.63614 18.3646L8.22192 16.9504L13.1717 12.0007Z"></path></symbol><symbol viewBox="0 0 24 24" id="search-line"><path d="M18.031 16.6168L22.3137 20.8995L20.8995 22.3137L16.6168 18.031C15.0769 19.263 13.124 20 11 20C6.032 20 2 15.968 2 11C2 6.032 6.032 2 11 2C15.968 2 20 6.032 20 11C20 13.124 19.263 15.0769 18.031 16.6168ZM16.0247 15.8748C17.2475 14.6146 18 12.8956 18 11C18 7.1325 14.8675 4 11 4C7.1325 4 4 7.1325 4 11C4 14.8675 7.1325 18 11 18C12.8956 18 14.6146 17.2475 15.8748 16.0247L16.0247 15.8748Z"></path></symbol><symbol viewBox="0 0 24 24" id="book-open-line"><path d="M13 21V23H11V21H3C2.44772 21 2 20.5523 2 20V4C2 3.44772 2.44772 3 3 3H9C10.1947 3 11.2671 3.52375 12 4.35418C12.7329 3.52375 13.8053 3 15 3H21C21.5523 3 22 3.44772 22 4V20C22 20.5523 21.5523 21 21 21H13ZM20 19V5H15C13.8954 5 13 5.89543 13 7V19H20ZM11 19V7C11 5.89543 10.1046 5 9 5H4V19H11Z"></path></symbol><symbol viewBox="0 0 24 24" id="hashtag"><path d="M7.78428 14L8.2047 10H4V8H8.41491L8.94043 3H10.9514L10.4259 8H14.4149L14.9404 3H16.9514L16.4259 8H20V10H16.2157L15.7953 14H20V16H15.5851L15.0596 21H13.0486L13.5741 16H9.58509L9.05957 21H7.04855L7.57407 16H4V14H7.78428ZM9.7953 14H13.7843L14.2047 10H10.2157L9.7953 14Z"></path></symbol><symbol viewBox="0 0 24 24" id="home-8-line"><path d="M19 21H5C4.44772 21 4 20.5523 4 20V11L1 11L11.3273 1.6115C11.7087 1.26475 12.2913 1.26475 12.6727 1.6115L23 11L20 11V20C20 20.5523 19.5523 21 19 21ZM6 19H18V9.15745L12 3.7029L6 9.15745V19ZM9 9.99998H15V16H9V9.99998ZM11 12V14H13V12H11Z"></path></symbol><symbol viewBox="0 0 24 24" id="circle-line"><path d="M12 22C6.47715 22 2 17.5228 2 12C2 6.47715 6.47715 2 12 2C17.5228 2 22 6.47715 22 12C22 17.5228 17.5228 22 12 22ZM12 20C16.4183 20 20 16.4183 20 12C20 7.58172 16.4183 4 12 4C7.58172 4 4 7.58172 4 12C4 16.4183 7.58172 20 12 20Z"></path></symbol><symbol viewBox="0 0 24 24" id="corner-down-left-line"><path d="M19.0001 13.9999L19.0002 5L17.0002 4.99997L17.0001 11.9999L6.8283 12L10.778 8.05024L9.36381 6.63603L2.99985 13L9.36381 19.364L10.778 17.9497L6.82825 14L19.0001 13.9999Z"></path></symbol><symbol viewBox="0 0 24 24" id="arrow-down-s-line"><path d="M11.9999 13.1714L16.9497 8.22168L18.3639 9.63589L11.9999 15.9999L5.63599 9.63589L7.0502 8.22168L11.9999 13.1714Z"></path></symbol><symbol viewBox="0 0 24 24" id="arrow-down-line"><path d="M13.0001 16.1716L18.3641 10.8076L19.7783 12.2218L12.0001 20L4.22192 12.2218L5.63614 10.8076L11.0001 16.1716V4H13.0001V16.1716Z"></path></symbol><symbol viewBox="0 0 24 24" id="arrow-up-line"><path d="M13.0001 7.82843V20H11.0001V7.82843L5.63614 13.1924L4.22192 11.7782L12.0001 4L19.7783 11.7782L18.3641 13.1924L13.0001 7.82843Z"></path></symbol><symbol viewBox="0 0 24 24" id="arrow-up-s-line"><path d="M11.9999 10.8284L7.0502 15.7782L5.63599 14.364L11.9999 8L18.3639 14.364L16.9497 15.7782L11.9999 10.8284Z"></path></symbol><symbol viewBox="0 0 24 24" id="close-line"><path d="M11.9997 10.5865L16.9495 5.63672L18.3637 7.05093L13.4139 12.0007L18.3637 16.9504L16.9495 18.3646L11.9997 13.4149L7.04996 18.3646L5.63574 16.9504L10.5855 12.0007L5.63574 7.05093L7.04996 5.63672L11.9997 10.5865Z"></path></symbol></svg>